<svg width="108" height="115" viewBox="0 0 108 115" fill="none" xmlns="http://www.w3.org/2000/svg">
<g clip-path="url(#clip0_11_700)">
<mask id="mask0_11_700" style="mask-type:luminance" maskUnits="userSpaceOnUse" x="0" y="0" width="108" height="115">
<path d="M54 115C83.8234 115 108 89.2564 108 57.5C108 25.7436 83.8234 0 54 0C24.1766 0 0 25.7436 0 57.5C0 89.2564 24.1766 115 54 115Z" fill="white"/>
</mask>
<g mask="url(#mask0_11_700)">
<path d="M0 0H20.8828L27 7.1875L32.9062 0H108V12.8027L101.25 19.0918L108 25.6055V38.4082L101.25 44.6973L108 51.2109V64.0137L101.25 70.3027L108 76.5918V89.3945L101.25 95.9082L108 102.197V115H0V102.197L6.75 95.9082L0 89.3945V76.8164L6.75 70.3027L0 64.0137V38.4082L6.75 31.8945L0 25.6055V0Z" fill="#0052B4"/>
<path d="M20.8828 0V25.6055H0V38.4082H20.8828V64.0137H0V76.8164H108V64.0137H32.9062V38.4082H54V25.6055H32.9062V0H20.8828ZM54 12.8027V25.6055H108V12.8027H54ZM54 38.4082V51.2109H108V38.4082H54ZM0 89.3945V102.197H108V89.3945H0Z" fill="#EEEEEE"/>
</g>
</g>
<defs>
<clipPath id="clip0_11_700">
<rect width="108" height="115" fill="white"/>
</clipPath>
</defs>
</svg>
