<svg width="24" height="25" viewBox="0 0 24 25" fill="none" xmlns="http://www.w3.org/2000/svg">
<mask id="mask0_16_372" style="mask-type:alpha" maskUnits="userSpaceOnUse" x="1" y="1" width="23" height="23">
<ellipse cx="12.0002" cy="12.5" rx="11.0002" ry="11" fill="#D9D9D9"/>
</mask>
<g mask="url(#mask0_16_372)">
<rect y="0.5" width="24.0004" height="24" fill="#FFB37C"/>
</g>
<path d="M11.4476 6.56006C11.6219 6.48331 11.8103 6.44375 12.0007 6.44391C12.1911 6.44396 12.3793 6.48367 12.5534 6.56051C12.7275 6.63735 12.8837 6.74964 13.012 6.89021C13.1403 7.03079 13.2378 7.19655 13.2985 7.37694C13.3591 7.55733 13.3815 7.74838 13.3642 7.93791L12.8182 13.9469C12.797 14.1489 12.7017 14.3359 12.5508 14.4719C12.3998 14.6078 12.2039 14.683 12.0007 14.683C11.7976 14.683 11.6017 14.6078 11.4507 14.4719C11.2997 14.3359 11.2045 14.1489 11.1832 13.9469L10.6357 7.93791C10.6184 7.74826 10.6409 7.55708 10.7016 7.37659C10.7623 7.19609 10.8601 7.03026 10.9885 6.88966C11.117 6.74907 11.2733 6.63681 11.4476 6.56006Z" fill="white"/>
<path d="M13.3093 17.2477C13.3093 17.9703 12.7234 18.5562 12.0008 18.5562C11.2781 18.5562 10.6923 17.9703 10.6923 17.2477C10.6923 16.525 11.2781 15.9392 12.0008 15.9392C12.7234 15.9392 13.3093 16.525 13.3093 17.2477Z" fill="white"/>
</svg>
