<svg xmlns="http://www.w3.org/2000/svg" xml:space="preserve" width="396.519" height="247.141" viewBox="0 0 104.912 65.389"><path d="M110.727 114.023H84.185s-4.029-.237-4.74 3.673c-.71 3.91-3.08 18.367-3.08 18.367H58.116s-5.214.71-2.133 8.65c3.08 7.939 12.323 31.637 12.323 31.637s.592 2.963 5.45 2.963h24.884l2.133-9.954h-5.57l3.082-15.167H83l2.962-16.352h14.93l2.252-14.93h5.45z" style="display:inline;fill:#df220e;fill-opacity:1;stroke-width:1.13811" transform="translate(-55.01 -113.923)"/><path d="M104.205 179.213h26.542s4.029.237 4.74-3.674c.71-3.91 3.08-18.366 3.08-18.366h18.248s5.214-.71 2.133-8.65c-3.08-7.939-12.323-31.637-12.323-31.637s-.592-2.963-5.45-2.963H116.29l-2.133 9.954h5.57l-3.082 15.167h15.286l-2.962 16.352h-14.93l-2.252 14.93h-5.45z" style="display:inline;fill:#37a1a7;fill-opacity:1;stroke-width:1.13811" transform="translate(-55.01 -113.923)"/></svg>