<svg width="24" height="25" viewBox="0 0 24 25" fill="none" xmlns="http://www.w3.org/2000/svg">
<mask id="mask0_16_28" style="mask-type:alpha" maskUnits="userSpaceOnUse" x="1" y="1" width="23" height="23">
<ellipse cx="12.0002" cy="12.5" rx="11.0002" ry="11" fill="#D9D9D9"/>
</mask>
<g mask="url(#mask0_16_28)">
<rect y="0.5" width="24.0004" height="24" fill="#006FFD"/>
</g>
<path fill-rule="evenodd" clip-rule="evenodd" d="M9.63322 11.3132C9.63322 10.7609 10.0809 10.3132 10.6332 10.3132H12C12.5523 10.3132 13 10.7609 13 11.3132V15.97H14.2059C14.7582 15.97 15.2059 16.4177 15.2059 16.97C15.2059 17.5223 14.7582 17.97 14.2059 17.97H9.79413C9.24184 17.97 8.79413 17.5223 8.79413 16.97C8.79413 16.4177 9.24184 15.97 9.79413 15.97H11V12.3132H10.6332C10.0809 12.3132 9.63322 11.8655 9.63322 11.3132Z" fill="white"/>
<path d="M13.2326 8.33845C13.2326 9.06111 12.6468 9.64694 11.9241 9.64694C11.2015 9.64694 10.6156 9.06111 10.6156 8.33845C10.6156 7.6158 11.2015 7.02997 11.9241 7.02997C12.6468 7.02997 13.2326 7.6158 13.2326 8.33845Z" fill="white"/>
</svg>
