<svg width="115" height="115" viewBox="0 0 115 115" fill="none" xmlns="http://www.w3.org/2000/svg">
<g clip-path="url(#clip0_4_5819)">
<mask id="mask0_4_5819" style="mask-type:luminance" maskUnits="userSpaceOnUse" x="0" y="0" width="115" height="115">
<path d="M57.5 115C89.2564 115 115 89.2564 115 57.5C115 25.7436 89.2564 0 57.5 0C25.7436 0 0 25.7436 0 57.5C0 89.2564 25.7436 115 57.5 115Z" fill="white"/>
</mask>
<g mask="url(#mask0_4_5819)">
<path d="M0 0L1.79688 4.94141L0 10.1074V15.2734L7.1875 27.4023L0 39.5312V46.7188L7.1875 57.5L0 68.2812V75.4688L7.1875 87.5977L0 99.7266V115L4.94141 113.203L10.1074 115H15.2734L27.4023 107.812L39.5312 115H46.7188L57.5 107.812L68.2812 115H75.4688L87.5977 107.812L99.7266 115H115L113.203 110.059L115 104.893V99.7266L107.812 87.5977L115 75.4688V68.2812L107.812 57.5L115 46.7188V39.5312L107.812 27.4023L115 15.2734V0L110.059 1.79688L104.893 0H99.7266L87.5977 7.1875L75.4688 0H68.2812L57.5 7.1875L46.7188 0H39.5312L27.4023 7.1875L15.2734 0H0Z" fill="#EEEEEE"/>
<path d="M75.4688 0V24.2578L99.7266 0H75.4688ZM115 15.2734L90.7422 39.5312H115V15.2734ZM0 39.5312H24.2578L0 15.2734V39.5312ZM15.2734 0L39.5312 24.2578V0H15.2734ZM39.5312 115V90.7422L15.2734 115H39.5312ZM0 99.7266L24.2578 75.4688H0V99.7266ZM115 75.4688H90.7422L115 99.7266V75.4688ZM99.7266 115L75.4688 90.7422V115H99.7266Z" fill="#0052B4"/>
<path d="M0 0V10.1074L29.4238 39.5312H39.5312L0 0ZM46.7188 0V46.7188H0V68.2812H46.7188V115H68.2812V68.2812H115V46.7188H68.2812V0H46.7188ZM104.893 0L75.4688 29.4238V39.5312L115 0H104.893ZM39.5312 75.4688L0 115H10.1074L39.5312 85.5762V75.4688ZM75.4688 75.4688L115 115V104.893L85.5762 75.4688H75.4688Z" fill="#D80027"/>
</g>
</g>
<defs>
<clipPath id="clip0_4_5819">
<rect width="115" height="115" fill="white"/>
</clipPath>
</defs>
</svg>
